<?xml version="1.0" encoding="UTF-8" standalone="no"?>
<svg
   xmlns:dc="http://purl.org/dc/elements/1.1/"
   xmlns:cc="http://creativecommons.org/ns#"
   xmlns:rdf="http://www.w3.org/1999/02/22-rdf-syntax-ns#"
   xmlns:svg="http://www.w3.org/2000/svg"
   xmlns="http://www.w3.org/2000/svg"
   version="1.1"
   id="svg10"
   width="340.48001"
   height="151.67999"
   viewBox="0 0 340.48001 151.67999">
  <metadata
     id="metadata16">
    <rdf:RDF>
      <cc:Work
         rdf:about="">
        <dc:format>image/svg+xml</dc:format>
        <dc:type
           rdf:resource="http://purl.org/dc/dcmitype/StillImage" />
        <dc:title></dc:title>
      </cc:Work>
    </rdf:RDF>
  </metadata>
  <defs
     id="defs14" />
  <g
     id="g5449"
     transform="matrix(0.2743325,0,0,0.27177933,-207.75664,189.73505)">
    <path
       style="fill:#0059a8;fill-opacity:1;fill-rule:nonzero;stroke:none;stroke-width:9.11859"
       d="m 1505.7204,-670.01714 h -52.8235 v 237.33332 l -133.0397,-220.5209 c -6.1975,-10.4366 -17.453,-16.84805 -29.5641,-16.84805 h -80.1082 v 393.20462 h 53.1797 c 18.9857,0.0732 34.3733,-15.31633 34.1949,-34.3017 v -209.76369 l 146.8954,244.13672 h 61.2655 c 18.9856,0 34.3733,-15.38766 34.5155,-34.37303 v -324.4944 c -0.1436,-18.98523 -15.5299,-34.40852 -34.5155,-34.37289"
       id="path3417" />
    <path
       style="fill:#0059a8;fill-opacity:1;fill-rule:nonzero;stroke:none;stroke-width:9.11859"
       d="m 1868.3283,-488.9628 -0.068,-0.35631 c 20.3746,-19.05643 33.1621,-46.12729 33.1621,-76.22584 0,-57.70381 -46.7689,-104.47226 -104.472,-104.47226 l -204.528,-0.0342 v 393.77459 l 143.4404,0.0342 h 59.2705 c 65.7539,0.463 119.0055,-52.96625 118.9699,-118.93379 0,-38.11299 -17.9522,-71.98719 -45.8073,-93.78645 m -185.8981,-113.48396 94.0358,-0.0342 c 24.292,-0.21338 43.954,19.51949 43.954,43.77647 0,24.29254 -19.662,44.02582 -43.954,44.09701 l -94.0358,-0.0342 z m 99.6991,258.27765 h -99.6991 v -102.40636 l 99.6991,0.0342 c 28.5315,-0.24962 51.8263,22.68962 51.7552,51.36341 -0.068,28.46 -23.2955,51.54149 -51.7552,51.00724"
       id="path3419" />
    <path
       style="fill:#0059a8;fill-opacity:1;fill-rule:nonzero;stroke:none;stroke-width:9.11859"
       d="m 1048.7922,-670.37339 -99.77019,-0.0342 v 0.0342 h -103.4393 v 393.91705 h 53.679 c 18.7709,0 33.9808,-15.20958 33.6956,-33.98103 V -432.39884 H 1046.655 c 0.068,-0.0342 0.068,-0.0342 0.075,-0.0342 h 2.066 c 65.7539,0.42743 118.9692,-53.00196 118.9692,-118.96936 -0.068,-65.68262 -53.2864,-118.96949 -118.9692,-118.96949 m -115.76379,68.31836 h 99.69909 c 28.5315,-0.24894 51.827,22.72532 51.7552,51.36348 -0.068,28.46007 -23.2949,51.54156 -51.7552,51.04287 h -99.69909 z m 0,0"
       id="path3421" />
    <path
       style="fill:#0059a8;fill-opacity:1;fill-rule:nonzero;stroke:none;stroke-width:9.11859"
       d="m 845.61831,-232.92915 h 22.6185 c 12.5023,0 17.347,7.94311 17.347,16.06444 0,8.1569 -4.8447,16.10002 -17.347,16.10002 h -11.5763 v 13.10803 c 0,2.70713 -2.1728,4.87987 -4.8448,4.87987 h -6.1974 z m 11.0422,23.58019 h 8.5487 c 5.1292,0 9.688,-1.10429 9.688,-7.51575 0,-6.37589 -4.5588,-7.51574 -9.688,-7.51574 h -8.5487 z m 0,0"
       id="path3423" />
    <path
       style="fill:#0059a8;fill-opacity:1;fill-rule:nonzero;stroke:none;stroke-width:9.11859"
       d="m 903.64281,-198.52063 c 0.2462,6.30464 3.3483,9.18986 8.905,9.18986 3.9891,0 7.2308,-2.45772 7.8716,-4.70186 h 8.7628 c -2.7787,8.58441 -8.7628,12.21761 -16.9907,12.21761 -11.4341,0 -18.5583,-7.83636 -18.5583,-19.09213 0,-10.89953 7.5161,-19.16332 18.5583,-19.16332 12.36,0 18.3441,10.36527 17.6315,21.54984 z m 16.2069,-6.3047 c -0.926,-5.05796 -3.0994,-7.72946 -7.9434,-7.72946 -6.3049,0 -8.1569,4.91557 -8.2635,7.72946 z m 0,0"
       id="path3425" />
    <path
       style="fill:#0059a8;fill-opacity:1;fill-rule:nonzero;stroke:none;stroke-width:9.11859"
       d="m 939.72511,-219.10877 h 9.4747 v 6.73213 h 0.1436 c 1.8165,-4.55926 6.7323,-7.69383 11.5763,-7.69383 0.7127,0 1.5675,0.10669 2.1728,0.35631 v 9.26105 c -0.8904,-0.21338 -2.3861,-0.35631 -3.5617,-0.35631 -7.302,0 -9.8311,5.27175 -9.8311,11.64757 v 11.50519 c 0,2.70713 -2.1727,4.87987 -4.8796,4.87987 h -5.0936 z m 0,0"
       id="path3427" />
    <path
       style="fill:#0059a8;fill-opacity:1;fill-rule:nonzero;stroke:none;stroke-width:9.11859"
       d="m 971.31981,-219.10877 h 9.4035 v 4.91557 h 0.1436 c 2.6002,-3.70446 6.4116,-5.87727 11.1134,-5.87727 4.5595,0 8.61979,1.67411 10.57919,6.01966 2.1016,-3.13451 5.9129,-6.01966 10.9703,-6.01966 7.7294,0 13.2868,3.56194 13.2868,12.96551 v 19.4483 c 0,2.70713 -2.1735,4.87987 -4.8803,4.87987 h -5.1292 v -20.58808 c 0,-4.84424 -0.3899,-8.83368 -6.0908,-8.83368 -5.6278,0 -6.6612,4.63052 -6.6612,9.18986 v 15.35203 c 0,2.70713 -2.1727,4.87987 -4.87959,4.87987 h -5.0936 v -20.37443 c 0,-4.23872 0.2872,-9.04733 -6.0552,-9.04733 -1.9594,0 -6.7323,1.24674 -6.7323,8.33498 v 16.20691 c 0,2.70713 -2.1728,4.87987 -4.8796,4.87987 h -5.0937 z m 0,0"
       id="path3429" />
    <path
       style="fill:#0059a8;fill-opacity:1;fill-rule:nonzero;stroke:none;stroke-width:9.11859"
       d="m 1056.2727,-220.07047 c 11.4696,0 18.8427,7.58701 18.8427,19.16332 0,11.50519 -7.3731,19.09213 -18.8427,19.09213 -11.363,0 -18.7361,-7.58694 -18.7361,-19.09213 0,-11.57631 7.3731,-19.16332 18.7361,-19.16332 m 0,30.7397 c 6.8389,0 8.8694,-5.80601 8.8694,-11.57638 0,-5.84164 -2.0305,-11.64764 -8.8694,-11.64764 -6.7323,0 -8.7628,5.806 -8.7628,11.64764 0,5.77037 2.0305,11.57638 8.7628,11.57638"
       id="path3431" />
    <path
       style="fill:#0059a8;fill-opacity:1;fill-rule:nonzero;stroke:none;stroke-width:9.11859"
       d="m 1111.4829,-187.40731 h -0.1436 c -2.315,3.91811 -6.4115,5.59229 -11.0422,5.59229 -10.9348,0 -16.2781,-9.40358 -16.2781,-19.4483 0,-9.75982 5.3789,-18.80715 16.0647,-18.80715 4.3099,0 8.5132,1.81657 10.757,5.37857 h 0.1437 v -18.23725 h 5.1292 c 2.6713,0 4.844,2.1728 4.844,4.84424 v 40.42825 c 0,2.70713 -2.1727,4.87987 -4.844,4.87987 h -4.6307 z m -8.7265,-25.14748 c -6.5189,0 -8.7628,5.62792 -8.7628,11.57645 0,5.69911 2.6002,11.64757 8.7628,11.64757 6.6249,0 8.5843,-5.73481 8.5843,-11.7189 0,-5.8772 -2.1016,-11.50512 -8.5843,-11.50512"
       id="path3433" />
    <path
       style="fill:#0059a8;fill-opacity:1;fill-rule:nonzero;stroke:none;stroke-width:9.11859"
       d="m 1132.0354,-207.9242 c 0.5676,-9.33231 8.905,-12.14627 17.0618,-12.14627 7.2308,0 15.9574,1.60292 15.9574,10.32971 v 18.87834 c 0,3.31258 0.3556,6.58968 1.2467,8.08563 h -10.1155 c -0.3556,-1.13978 -0.6087,-2.31526 -0.6771,-3.5263 -3.1698,3.31258 -7.8005,4.48807 -12.2526,4.48807 -6.8753,0 -12.3245,-3.41949 -12.3245,-10.86404 0,-8.22809 6.1619,-10.18718 12.3245,-11.04205 6.1263,-0.92613 11.8252,-0.71221 11.8252,-4.77298 0,-4.27435 -2.9565,-4.91557 -6.4827,-4.91557 -3.7757,0 -6.2337,1.53165 -6.5893,5.48546 z m 23.0459,7.37322 c -1.6742,1.46046 -5.2003,1.53166 -8.2991,2.10162 -3.0994,0.64081 -5.8774,1.67404 -5.8774,5.34294 0,3.70446 2.8498,4.63052 6.0908,4.63052 7.8005,0 8.0857,-6.19781 8.0857,-8.37062 z m 0,0"
       id="path3435" />
    <path
       style="fill:#0059a8;fill-opacity:1;fill-rule:nonzero;stroke:none;stroke-width:9.11859"
       d="m 1177.0583,-232.92915 h 5.0937 c 2.7075,0 4.8802,2.1728 4.8802,4.84424 v 40.42825 c 0,2.70713 -2.1727,4.87987 -4.8802,4.87987 h -5.0937 z m 0,0"
       id="path3437" />
    <path
       style="fill:#0059a8;fill-opacity:1;fill-rule:nonzero;stroke:none;stroke-width:9.11859"
       d="m 1198.4663,-207.9242 c 0.5676,-9.33231 8.9043,-12.14627 17.0612,-12.14627 7.2308,0 15.958,1.60292 15.958,10.32971 v 18.87834 c 0,3.31258 0.3556,6.58968 1.2467,8.08563 h -10.1161 c -0.3557,-1.13978 -0.6087,-2.31526 -0.6771,-3.5263 -3.1705,3.31258 -7.8012,4.48807 -12.2178,4.48807 -6.9101,0 -12.3956,-3.41949 -12.3956,-10.86404 0,-8.22809 6.1981,-10.18718 12.3956,-11.04205 6.0908,-0.92613 11.7904,-0.71221 11.7904,-4.77298 0,-4.27435 -2.9565,-4.91557 -6.4834,-4.91557 -3.7751,0 -6.233,1.53165 -6.5893,5.48546 z m 23.0453,7.37322 c -1.7098,1.46046 -5.2004,1.53166 -8.2991,2.10162 -3.0988,0.64081 -5.8774,1.67404 -5.8774,5.34294 0,3.70446 2.8498,4.63052 6.0908,4.63052 7.8012,0 8.0857,-6.19781 8.0857,-8.37062 z m 0,0"
       id="path3439" />
    <path
       style="fill:#0059a8;fill-opacity:1;fill-rule:nonzero;stroke:none;stroke-width:9.11859"
       d="m 1243.2041,-219.10877 h 9.4747 v 5.05796 h 0.212 c 2.529,-4.06057 6.8745,-6.01966 11.0777,-6.01966 10.6148,0 13.2861,5.94846 13.2861,14.96023 v 17.45358 c 0,2.70713 -2.1728,4.87987 -4.8441,4.87987 h -5.1292 v -20.51688 c 0,-5.9841 -1.7453,-8.90488 -6.3759,-8.90488 -5.4145,0 -7.7294,2.99205 -7.7294,10.36534 v 14.17655 c 0,2.70713 -2.1728,4.87987 -4.8796,4.87987 h -5.0937 z m 0,0"
       id="path3441" />
    <path
       style="fill:#0059a8;fill-opacity:1;fill-rule:nonzero;stroke:none;stroke-width:9.11859"
       d="m 1313.4101,-232.92915 h 8.2642 c 1.6742,0 3.241,0.85439 4.1314,2.27963 l 19.4842,31.34529 h 0.1437 v -33.62492 h 5.4855 c 2.6713,0 4.844,2.1728 4.844,4.84424 v 40.42825 c 0,2.70713 -2.1727,4.87987 -4.844,4.87987 h -6.1982 l -20.8376,-33.58922 h -0.1436 v 28.70935 c 0,2.70713 -2.1728,4.87987 -4.8796,4.87987 h -5.45 z m 0,0"
       id="path3443" />
    <path
       style="fill:#0059a8;fill-opacity:1;fill-rule:nonzero;stroke:none;stroke-width:9.11859"
       d="m 1367.9796,-207.9242 c 0.5676,-9.33231 8.905,-12.14627 17.0618,-12.14627 7.2308,0 15.9218,1.60292 15.9218,10.32971 v 18.87834 c 0,3.31258 0.3556,6.58968 1.2823,8.08563 H 1392.13 c -0.3556,-1.13978 -0.6429,-2.31526 -0.7126,-3.5263 -3.1343,3.31258 -7.8006,4.48807 -12.2172,4.48807 -6.8745,0 -12.36,-3.41949 -12.36,-10.86404 0,-8.22809 6.1975,-10.18718 12.36,-11.04205 6.1264,-0.92613 11.8253,-0.71221 11.8253,-4.77298 0,-4.27435 -2.9565,-4.91557 -6.4827,-4.91557 -3.7757,0 -6.2685,1.53165 -6.5893,5.48546 z m 23.0459,7.37322 c -1.7097,1.46046 -5.2359,1.53166 -8.2991,2.10162 -3.0994,0.64081 -5.913,1.67404 -5.913,5.34294 0,3.70446 2.8847,4.63052 6.1264,4.63052 7.8005,0 8.0857,-6.19781 8.0857,-8.37062 z m 0,0"
       id="path3445" />
    <path
       style="fill:#0059a8;fill-opacity:1;fill-rule:nonzero;stroke:none;stroke-width:9.11859"
       d="m 1420.4118,-194.60252 c 0.075,4.38125 3.7396,6.12662 7.6583,6.12662 2.8847,0 6.5538,-1.13985 6.5538,-4.63052 0,-3.02768 -4.1677,-4.09627 -11.3274,-5.62792 -5.77,-1.24668 -11.5407,-3.27703 -11.5407,-9.68856 0,-9.26111 8.0501,-11.64757 15.8151,-11.64757 7.9434,0 15.2454,2.67144 16.0291,11.57638 h -9.4747 c -0.2872,-3.88255 -3.2416,-4.91557 -6.8389,-4.91557 -2.2446,0 -5.5211,0.42743 -5.5211,3.38392 0,3.56193 5.6277,4.06063 11.2911,5.4142 5.8418,1.31787 11.5407,3.41948 11.5407,10.15155 0,9.58166 -8.299,12.64497 -16.5988,12.64497 -8.4413,0 -16.6344,-3.13451 -17.0612,-12.7875 z m 0,0"
       id="path3447" />
    <path
       style="fill:#0059a8;fill-opacity:1;fill-rule:nonzero;stroke:none;stroke-width:9.11859"
       d="m 1464.651,-224.70106 h -9.9732 v -8.22809 h 5.1292 c 2.6713,0 4.844,2.1728 4.844,4.84424 z m -9.9732,5.59229 h 5.1292 c 2.6713,0 4.844,2.17287 4.844,4.87987 v 26.57224 c 0,2.70713 -2.1727,4.87987 -4.844,4.87987 h -5.1292 z m 0,0"
       id="path3449" />
    <path
       style="fill:#0059a8;fill-opacity:1;fill-rule:nonzero;stroke:none;stroke-width:9.11859"
       d="m 1494.1441,-220.07047 c 11.434,0 18.8427,7.58701 18.8427,19.16332 0,11.50519 -7.4087,19.09213 -18.8427,19.09213 -11.3623,0 -18.7361,-7.58694 -18.7361,-19.09213 0,-11.57631 7.3738,-19.16332 18.7361,-19.16332 m 0,30.7397 c 6.8034,0 8.8694,-5.80601 8.8694,-11.57638 0,-5.84164 -2.066,-11.64764 -8.8694,-11.64764 -6.7323,0 -8.7621,5.806 -8.7621,11.64764 0,5.77037 2.0298,11.57638 8.7621,11.57638"
       id="path3451" />
    <path
       style="fill:#0059a8;fill-opacity:1;fill-rule:nonzero;stroke:none;stroke-width:9.11859"
       d="m 1523.4237,-219.10877 h 9.4747 v 5.05796 h 0.212 c 2.5291,-4.06057 6.8745,-6.01966 11.1133,-6.01966 10.5792,0 13.2505,5.94846 13.2505,14.96023 v 17.45358 c 0,2.70713 -2.1727,4.87987 -4.8447,4.87987 h -5.1292 v -20.51688 c 0,-5.9841 -1.7453,-8.90488 -6.3753,-8.90488 -5.4144,0 -7.7294,2.99205 -7.7294,10.36534 v 14.17655 c 0,2.70713 -2.1734,4.87987 -4.8447,4.87987 h -5.1293 z m 0,0"
       id="path3453" />
    <path
       style="fill:#0059a8;fill-opacity:1;fill-rule:nonzero;stroke:none;stroke-width:9.11859"
       d="m 1568.66,-207.9242 c 0.5335,-9.33231 8.905,-12.14627 17.0619,-12.14627 7.2308,0 15.9224,1.60292 15.9224,10.32971 v 18.87834 c 0,3.31258 0.3557,6.58968 1.2823,8.08563 h -10.1162 c -0.3556,-1.13978 -0.6428,-2.31526 -0.7119,-3.5263 -3.1705,3.31258 -7.8012,4.48807 -12.2178,4.48807 -6.8745,0 -12.3601,-3.41949 -12.3601,-10.86404 0,-8.22809 6.1626,-10.18718 12.3601,-11.04205 6.1263,-0.92613 11.7904,-0.71221 11.7904,-4.77298 0,-4.27435 -2.9565,-4.91557 -6.4471,-4.91557 -3.8114,0 -6.2693,1.53165 -6.59,5.48546 z m 23.0104,7.37322 c -1.6742,1.46046 -5.2004,1.53166 -8.2635,2.10162 -3.0988,0.64081 -5.913,1.67404 -5.913,5.34294 0,3.70446 2.8854,4.63052 6.127,4.63052 7.765,0 8.0495,-6.19781 8.0495,-8.37062 z m 0,0"
       id="path3455" />
    <path
       style="fill:#0059a8;fill-opacity:1;fill-rule:nonzero;stroke:none;stroke-width:9.11859"
       d="m 1613.6481,-232.92915 h 5.1292 c 2.6713,0 4.844,2.1728 4.844,4.84424 v 40.42825 c 0,2.70713 -2.1727,4.87987 -4.844,4.87987 h -5.1292 z m 0,0"
       id="path3457" />
    <path
       style="fill:#0059a8;fill-opacity:1;fill-rule:nonzero;stroke:none;stroke-width:9.11859"
       d="m 1660.06,-232.92915 h 23.6163 c 9.5458,0 15.9929,3.09887 15.9929,12.43125 0,4.91543 -2.4579,8.33491 -6.8034,10.47216 6.0908,1.7453 9.1902,6.44715 9.1902,12.68053 0,10.18725 -8.6205,14.56842 -17.7033,14.56842 H 1660.06 Z m 11.0422,20.30316 h 11.1489 c 3.8825,0 6.7678,-1.781 6.7678,-5.98409 0,-4.77305 -3.6684,-5.77037 -7.5871,-5.77037 h -10.3296 z m 0,21.26487 h 11.7904 c 4.3454,0 8.1568,-1.38913 8.1568,-6.58955 0,-5.12922 -3.2417,-7.15957 -7.9435,-7.15957 h -12.0037 z m 0,0"
       id="path3459" />
    <path
       style="fill:#0059a8;fill-opacity:1;fill-rule:nonzero;stroke:none;stroke-width:9.11859"
       d="m 1720.6491,-198.52063 c 0.2872,6.30464 3.3839,9.18986 8.9406,9.18986 3.9892,0 7.2308,-2.45772 7.8716,-4.70186 h 8.7628 c -2.8142,8.58441 -8.7628,12.21761 -16.9907,12.21761 -11.4341,0 -18.5575,-7.83636 -18.5575,-19.09213 0,-10.89953 7.5153,-19.16332 18.5575,-19.16332 12.36,0 18.3441,10.36527 17.6315,21.54984 z m 16.2425,-6.3047 c -0.9259,-5.05796 -3.0987,-7.72946 -7.9427,-7.72946 -6.3049,0 -8.122,4.91557 -8.2998,7.72946 z m 0,0"
       id="path3461" />
    <path
       style="fill:#0059a8;fill-opacity:1;fill-rule:nonzero;stroke:none;stroke-width:9.11859"
       d="m 1756.7677,-219.10877 h 9.4747 v 6.73213 h 0.1436 c 1.8165,-4.55926 6.7316,-7.69383 11.5763,-7.69383 0.712,0 1.5669,0.10669 2.1728,0.35631 v 9.26105 c -0.8911,-0.21338 -2.3868,-0.35631 -3.5617,-0.35631 -7.3027,0 -9.8311,5.27175 -9.8311,11.64757 v 11.50519 c 0,2.70713 -2.2089,4.87987 -4.8802,4.87987 h -5.0937 z m 0,0"
       id="path3463" />
    <path
       style="fill:#0059a8;fill-opacity:1;fill-rule:nonzero;stroke:none;stroke-width:9.11859"
       d="m 1788.0772,-232.92915 h 5.0936 c 2.7069,0 4.8796,2.1728 4.8796,4.84424 v 14.0341 h 0.212 c 2.5291,-4.06057 6.8746,-6.01966 10.5792,-6.01966 10.6148,0 13.2861,5.94846 13.2861,14.96023 v 17.45358 c 0,2.70713 -2.1728,4.87987 -4.8441,4.87987 h -5.1292 v -20.51688 c 0,-5.9841 -1.7453,-8.94051 -6.3759,-8.94051 -5.4144,0 -7.7294,3.02768 -7.7294,10.40097 v 14.17655 c 0,2.70713 -2.1728,4.87987 -4.8803,4.87987 h -5.0937 z m 0,0"
       id="path3465" />
    <path
       style="fill:#0059a8;fill-opacity:1;fill-rule:nonzero;stroke:none;stroke-width:9.11859"
       d="m 1833.2786,-207.9242 c 0.5676,-9.33231 8.9399,-12.14627 17.0619,-12.14627 7.2301,0 15.9573,1.60292 15.9573,10.32971 v 18.87834 c 0,3.31258 0.3556,6.58968 1.2823,8.08563 h -10.1162 c -0.3556,-1.13978 -0.6428,-2.31526 -0.7119,-3.5263 -3.1699,3.31258 -7.8005,4.48807 -12.2178,4.48807 -6.9101,0 -12.3601,-3.41949 -12.3601,-10.86404 0,-8.22809 6.1626,-10.18718 12.3601,-11.04205 6.0914,-0.92613 11.7903,-0.71221 11.7903,-4.77298 0,-4.27435 -2.9564,-4.91557 -6.447,-4.91557 -3.8114,0 -6.2693,1.53165 -6.6256,5.48546 z m 23.0459,7.37322 c -1.6741,1.46046 -5.201,1.53166 -8.2997,2.10162 -3.0632,0.64081 -5.8774,1.67404 -5.8774,5.34294 0,3.70446 2.8853,4.63052 6.0914,4.63052 7.8006,0 8.0857,-6.19781 8.0857,-8.37062 z m 0,0"
       id="path3467" />
    <path
       style="fill:#0059a8;fill-opacity:1;fill-rule:nonzero;stroke:none;stroke-width:9.11859"
       d="m 1903.9477,-187.40731 h -0.1437 c -2.3149,3.91811 -6.4115,5.59229 -11.0421,5.59229 -10.9704,0 -16.2781,-9.40358 -16.2781,-19.4483 0,-9.75982 5.3788,-18.80715 16.0647,-18.80715 4.3099,0 8.5131,1.81657 10.757,5.37857 h 0.1436 v -18.23725 h 5.1292 c 2.6713,0 4.8441,2.1728 4.8441,4.84424 v 40.42825 c 0,2.70713 -2.1728,4.87987 -4.8441,4.87987 h -4.6306 z m -8.7272,-25.14748 c -6.5183,0 -8.7621,5.62792 -8.7621,11.57645 0,5.69911 2.6002,11.64757 8.7621,11.64757 6.6255,0 8.5849,-5.73481 8.5849,-11.7189 0,-5.8772 -2.1372,-11.50512 -8.5849,-11.50512"
       id="path3469" />
  </g>
</svg>
